<?xml version="1.0" encoding="UTF-8" standalone="no"?>
<!DOCTYPE svg PUBLIC "-//W3C//DTD SVG 1.1//EN" "http://www.w3.org/Graphics/SVG/1.1/DTD/svg11.dtd">
<svg version="1.1" xmlns="http://www.w3.org/2000/svg" xmlns:xlink="http://www.w3.org/1999/xlink" preserveAspectRatio="xMidYMid meet" viewBox="0 0 640 640" width="640" height="640"><defs><path d="M344.84 0.2L351.21 0.45L357.53 0.81L363.79 1.26L370 1.82L376.16 2.47L382.27 3.23L388.32 4.08L394.32 5.04L400.26 6.1L406.16 7.26L412 8.52L417.78 9.88L423.52 11.35L429.2 12.91L434.83 14.57L440.4 16.34L445.92 18.2L451.39 20.17L456.81 22.24L462.17 24.41L467.48 26.68L472.73 29.05L477.94 31.52L483.09 34.09L488.18 36.76L493.23 39.54L498.22 42.41L503.15 45.39L508.04 48.46L512.87 51.64L517.64 54.92L522.37 58.3L527.04 61.77L531.65 65.36L536.22 69.04L540.73 72.82L545.18 76.7L549.59 80.69L553.92 84.74L558.14 88.84L562.25 92.98L566.25 97.16L570.15 101.39L573.93 105.66L577.6 109.97L581.16 114.32L584.61 118.72L587.95 123.15L591.18 127.63L594.3 132.16L597.32 136.72L600.22 141.33L603.01 145.98L605.69 150.67L608.27 155.4L610.73 160.18L613.08 165L615.32 169.86L617.46 174.76L619.48 179.7L621.4 184.69L623.2 189.72L624.9 194.79L626.48 199.9L627.96 205.06L629.32 210.25L630.58 215.49L631.73 220.77L632.77 226.09L633.7 231.46L634.52 236.86L635.23 242.31L635.83 247.8L636.32 253.33L636.7 258.9L636.97 264.52L637.14 270.17L637.19 275.87L637.16 280.37L637.06 284.83L636.89 289.27L636.66 293.66L636.35 298.03L635.99 302.36L635.55 306.67L635.05 310.93L634.48 315.17L633.84 319.37L633.14 323.54L632.37 327.67L631.53 331.78L630.63 335.85L629.65 339.88L628.62 343.89L627.51 347.86L626.34 351.8L625.1 355.7L623.79 359.58L622.42 363.41L620.98 367.22L619.48 370.99L617.9 374.73L616.26 378.44L614.56 382.11L612.78 385.75L610.94 389.36L609.04 392.94L607.06 396.48L605.02 399.98L602.92 403.46L600.74 406.9L598.5 410.31L596.2 413.68L593.82 417.03L591.38 420.33L588.88 423.61L586.3 426.85L583.66 430.06L580.98 433.22L578.27 436.3L575.53 439.31L572.77 442.23L569.99 445.07L567.18 447.83L564.34 450.51L561.48 453.11L558.59 455.63L555.68 458.07L552.75 460.43L549.79 462.71L546.8 464.91L543.79 467.03L540.76 469.06L537.7 471.02L534.61 472.9L531.5 474.7L528.37 476.42L525.21 478.06L522.02 479.62L518.81 481.09L515.58 482.49L512.32 483.81L509.03 485.05L505.72 486.21L502.39 487.29L499.03 488.29L495.64 489.2L492.23 490.04L488.8 490.8L485.34 491.48L481.85 492.08L478.34 492.6L474.81 493.04L471.25 493.4L467.66 493.68L464.05 493.88L460.42 494L456.76 494.04L454.28 494.01L451.83 493.94L449.41 493.82L447.02 493.65L444.66 493.44L442.33 493.17L440.03 492.86L437.76 492.5L435.52 492.09L433.31 491.63L431.13 491.13L428.98 490.58L426.87 489.98L424.78 489.33L422.72 488.63L420.69 487.89L418.7 487.09L416.73 486.25L414.8 485.36L412.89 484.42L411.02 483.44L409.17 482.4L407.36 481.32L405.58 480.19L403.82 479.01L402.1 477.78L400.41 476.51L398.75 475.18L397.11 473.81L395.51 472.39L393.94 470.92L392.4 469.4L390.89 467.84L389.41 466.22L387.96 464.56L386.54 462.85L385.15 461.09L383.79 459.28L382.46 457.42L381.17 455.52L379.45 457.5L377.72 459.43L375.98 461.32L374.21 463.15L372.43 464.93L370.64 466.66L368.82 468.35L366.99 469.98L365.14 471.56L363.27 473.09L361.39 474.58L359.48 476.01L357.57 477.39L355.63 478.72L353.68 480.01L351.7 481.24L349.72 482.42L347.71 483.55L345.69 484.63L343.65 485.66L341.59 486.64L339.51 487.57L337.42 488.46L335.31 489.29L333.19 490.07L331.04 490.8L328.88 491.48L326.7 492.11L324.5 492.68L322.29 493.21L320.05 493.69L317.81 494.12L315.54 494.5L313.25 494.83L310.95 495.1L308.63 495.33L306.29 495.51L303.94 495.63L301.57 495.71L299.18 495.73L296.5 495.7L293.85 495.62L291.21 495.48L288.6 495.28L286.01 495.03L283.43 494.72L280.87 494.35L278.34 493.93L275.82 493.45L273.32 492.91L270.85 492.32L268.39 491.67L265.95 490.97L263.53 490.2L261.13 489.38L258.75 488.51L256.38 487.58L254.04 486.59L251.72 485.54L249.42 484.44L247.13 483.28L244.87 482.06L242.62 480.79L240.4 479.46L238.19 478.07L236 476.63L233.83 475.13L231.68 473.57L229.55 471.96L227.44 470.29L225.35 468.56L223.28 466.77L221.23 464.93L219.19 463.03L217.18 461.07L215.18 459.06L213.21 456.99L211.25 454.86L209.31 452.67L207.39 450.43L205.51 448.15L203.67 445.83L201.88 443.48L200.14 441.09L198.45 438.67L196.8 436.21L195.2 433.71L193.65 431.18L192.15 428.61L190.7 426L189.29 423.36L187.93 420.68L186.62 417.97L185.36 415.22L184.14 412.44L182.98 409.62L181.86 406.76L180.78 403.87L179.76 400.94L178.78 397.98L177.86 394.98L176.98 391.94L176.14 388.87L175.36 385.76L174.62 382.62L173.93 379.44L173.29 376.23L172.69 372.98L172.15 369.7L171.65 366.38L171.19 363.02L170.79 359.63L170.43 356.2L170.12 352.74L169.86 349.24L169.65 345.71L169.48 342.14L169.36 338.54L169.29 334.9L169.27 331.23L169.3 327.47L169.38 323.74L169.51 320.04L169.7 316.38L169.94 312.76L170.23 309.17L170.58 305.61L170.98 302.09L171.43 298.6L171.94 295.15L172.5 291.73L173.12 288.34L173.79 284.99L174.51 281.68L175.29 278.4L176.12 275.15L177 271.94L177.94 268.76L178.93 265.61L179.98 262.51L181.07 259.43L182.23 256.39L183.43 253.39L184.7 250.41L186.01 247.48L187.38 244.58L188.8 241.71L190.28 238.88L191.81 236.08L193.39 233.31L195.03 230.59L196.73 227.89L198.47 225.23L200.28 222.61L202.13 220.02L204.04 217.46L206.01 214.94L208.02 212.46L210.1 210.01L212.22 207.59L214.38 205.22L216.56 202.91L218.76 200.66L220.98 198.47L223.22 196.34L225.49 194.27L227.77 192.26L230.08 190.31L232.41 188.42L234.77 186.59L237.14 184.82L239.54 183.1L241.96 181.45L244.4 179.86L246.86 178.33L249.35 176.86L251.85 175.45L254.38 174.09L256.93 172.8L259.5 171.57L262.1 170.4L264.71 169.29L267.35 168.23L270.01 167.24L272.69 166.31L275.39 165.44L278.11 164.63L280.86 163.88L283.63 163.18L286.42 162.55L289.23 161.98L292.06 161.47L294.91 161.02L297.79 160.63L300.69 160.3L303.6 160.02L306.54 159.81L309.51 159.66L312.49 159.57L315.5 159.54L317.39 159.56L319.28 159.61L321.16 159.69L323.04 159.81L324.9 159.95L326.76 160.13L328.61 160.35L330.46 160.59L332.29 160.87L334.12 161.18L335.94 161.52L337.76 161.9L339.57 162.31L341.37 162.75L343.16 163.23L344.94 163.73L346.72 164.27L348.49 164.85L350.25 165.45L352 166.09L353.75 166.76L355.49 167.46L357.22 168.19L358.94 168.96L360.66 169.76L362.37 170.59L364.07 171.46L365.76 172.36L367.45 173.29L369.12 174.25L370.79 175.24L372.46 176.27L374.11 177.33L375.76 178.42L377.4 179.55L379.03 180.7L380.65 181.89L382.27 183.11L383.88 184.37L385.48 185.65L390.83 166.2L474.39 166.2L450.1 364.78L450 365.8L449.89 366.8L449.79 367.81L449.69 368.8L449.59 369.79L449.5 370.77L449.41 371.74L449.32 372.71L449.23 373.67L449.15 374.62L449.07 375.57L448.99 376.51L448.91 377.45L448.84 378.37L448.77 379.29L448.7 380.21L448.63 381.11L448.57 382.01L448.51 382.91L448.45 383.79L448.4 384.67L448.35 385.55L448.3 386.42L448.25 387.28L448.21 388.13L448.16 388.98L448.13 389.82L448.09 390.65L448.06 391.48L448.03 392.3L448 393.12L447.98 393.93L447.95 394.73L447.93 395.52L447.92 396.31L447.91 397.1L447.9 397.87L447.89 398.64L447.88 399.41L447.88 400.16L447.89 401.08L447.93 401.98L447.98 402.85L448.05 403.7L448.15 404.52L448.27 405.32L448.41 406.1L448.57 406.85L448.75 407.59L448.96 408.29L449.19 408.98L449.43 409.64L449.7 410.27L449.99 410.89L450.31 411.48L450.64 412.05L451 412.59L451.37 413.11L451.77 413.61L452.19 414.08L452.63 414.54L453.1 414.96L453.58 415.37L454.09 415.75L454.61 416.11L455.16 416.44L455.73 416.75L456.33 417.04L456.94 417.31L457.58 417.55L458.23 417.77L458.91 417.97L459.61 418.14L460.33 418.29L461.08 418.41L461.84 418.52L462.63 418.6L463.44 418.66L464.27 418.69L465.12 418.7L466.71 418.68L468.3 418.6L469.89 418.48L471.48 418.3L473.06 418.08L474.64 417.8L476.22 417.48L477.79 417.1L479.36 416.68L480.93 416.2L482.5 415.68L484.06 415.1L485.62 414.47L487.17 413.8L488.73 413.07L490.28 412.29L491.83 411.47L493.37 410.59L494.91 409.66L496.45 408.68L497.99 407.65L499.52 406.57L501.05 405.44L502.58 404.26L504.1 403.03L505.62 401.75L507.14 400.42L508.66 399.04L510.17 397.6L511.68 396.12L513.18 394.59L514.69 393L516.19 391.36L517.69 389.68L519.18 387.94L520.67 386.15L522.16 384.31L523.65 382.42L525.13 380.48L526.61 378.49L528.07 376.47L529.49 374.42L530.88 372.35L532.23 370.25L533.54 368.13L534.82 365.98L536.06 363.8L537.26 361.6L538.43 359.38L539.56 357.12L540.65 354.85L541.71 352.54L542.72 350.21L543.71 347.86L544.65 345.47L545.56 343.07L546.43 340.64L547.26 338.18L548.06 335.7L548.82 333.19L549.54 330.65L550.23 328.09L550.88 325.51L551.49 322.9L552.07 320.26L552.61 317.6L553.11 314.91L553.57 312.2L554 309.47L554.39 306.7L554.74 303.92L555.06 301.1L555.34 298.27L555.58 295.4L555.78 292.51L555.95 289.6L556.08 286.66L556.17 283.7L556.23 280.71L556.25 277.7L556.21 273.29L556.08 268.92L555.88 264.59L555.6 260.3L555.24 256.04L554.79 251.82L554.27 247.64L553.66 243.5L552.97 239.39L552.21 235.32L551.36 231.29L550.43 227.3L549.42 223.35L548.33 219.43L547.16 215.55L545.91 211.71L544.57 207.91L543.16 204.14L541.67 200.41L540.09 196.72L538.43 193.07L536.7 189.45L534.88 185.87L532.98 182.33L531 178.83L528.94 175.37L526.8 171.94L524.58 168.55L522.28 165.2L519.89 161.88L517.43 158.61L514.89 155.37L512.26 152.17L509.55 149.01L506.77 145.88L503.9 142.79L500.95 139.74L497.92 136.73L494.81 133.76L491.62 130.82L488.37 127.94L485.08 125.13L481.76 122.39L478.4 119.73L475 117.14L471.57 114.63L468.1 112.18L464.6 109.81L461.05 107.51L457.47 105.29L453.86 103.14L450.2 101.06L446.51 99.05L442.79 97.12L439.03 95.26L435.23 93.47L431.39 91.76L427.52 90.11L423.61 88.55L419.67 87.05L415.68 85.63L411.67 84.28L407.61 83L403.52 81.8L399.39 80.67L395.23 79.61L391.03 78.62L386.79 77.71L382.52 76.87L378.21 76.11L373.87 75.41L369.48 74.79L365.07 74.25L360.61 73.77L356.12 73.37L351.59 73.04L347.03 72.79L342.43 72.61L337.79 72.5L333.12 72.46L328.05 72.5L323.02 72.64L318.02 72.86L313.07 73.17L308.16 73.57L303.29 74.06L298.45 74.64L293.66 75.31L288.9 76.07L284.19 76.91L279.52 77.85L274.88 78.87L270.29 79.98L265.73 81.18L261.22 82.47L256.75 83.85L252.31 85.32L247.92 86.87L243.56 88.52L239.25 90.25L234.98 92.07L230.74 93.98L226.55 95.98L222.4 98.07L218.28 100.24L214.21 102.51L210.18 104.86L206.19 107.3L202.23 109.83L198.32 112.45L194.45 115.15L190.62 117.95L186.83 120.83L183.08 123.8L179.37 126.86L175.7 130.01L172.08 133.25L168.49 136.57L164.94 139.98L161.44 143.48L157.98 147.06L154.62 150.68L151.34 154.34L148.15 158.05L145.05 161.8L142.03 165.6L139.1 169.43L136.26 173.32L133.51 177.24L130.84 181.21L128.26 185.22L125.77 189.28L123.36 193.38L121.04 197.52L118.81 201.71L116.67 205.94L114.61 210.22L112.64 214.54L110.76 218.9L108.97 223.3L107.26 227.76L105.64 232.25L104.11 236.79L102.67 241.37L101.31 245.99L100.04 250.66L98.86 255.38L97.76 260.14L96.76 264.94L95.84 269.78L95 274.67L94.26 279.6L93.6 284.58L93.03 289.6L92.55 294.67L92.16 299.78L91.85 304.93L91.63 310.13L91.5 315.37L91.46 320.65L91.5 325.52L91.62 330.36L91.82 335.17L92.11 339.95L92.48 344.69L92.93 349.41L93.46 354.09L94.07 358.74L94.77 363.36L95.54 367.95L96.4 372.5L97.34 377.03L98.36 381.52L99.46 385.98L100.65 390.41L101.91 394.81L103.26 399.18L104.69 403.52L106.2 407.82L107.79 412.09L109.47 416.33L111.22 420.54L113.06 424.72L114.98 428.87L116.98 432.98L119.06 437.07L121.22 441.12L123.46 445.14L125.79 449.13L128.19 453.08L130.68 457.01L133.25 460.9L135.9 464.76L138.64 468.59L141.45 472.39L144.34 476.16L147.32 479.89L150.38 483.59L153.52 487.26L156.74 490.9L160.04 494.49L163.41 497.99L166.85 501.39L170.35 504.7L173.93 507.93L177.57 511.06L181.27 514.1L185.05 517.05L188.89 519.91L192.79 522.68L196.77 525.36L200.81 527.94L204.92 530.44L209.1 532.84L213.34 535.16L217.65 537.38L222.03 539.51L226.47 541.55L230.98 543.5L235.56 545.36L240.21 547.13L244.92 548.81L249.7 550.39L254.55 551.89L259.46 553.3L264.44 554.61L269.49 555.83L274.6 556.97L279.79 558.01L285.03 558.96L290.35 559.82L295.73 560.59L301.18 561.27L306.7 561.86L312.29 562.36L317.94 562.77L323.66 563.08L329.44 563.31L335.3 563.45L341.22 563.49L344.96 563.47L348.71 563.41L352.46 563.3L356.22 563.16L359.98 562.97L363.75 562.73L367.52 562.46L371.29 562.15L375.08 561.79L378.86 561.39L382.65 560.95L386.45 560.46L390.25 559.93L394.05 559.37L397.86 558.76L401.67 558.1L405.49 557.41L409.31 556.67L413.14 555.89L416.97 555.07L420.81 554.21L424.65 553.3L428.49 552.36L432.34 551.37L436.19 550.33L440.05 549.26L443.91 548.15L447.78 546.99L451.65 545.79L455.52 544.55L459.4 543.26L463.29 541.93L467.17 540.57L471.06 539.16L474.96 537.7L478.86 536.21L482.76 534.67L486.67 533.09L490.58 531.47L494.49 529.81L496.02 529.2L497.55 528.65L499.09 528.17L500.64 527.76L502.19 527.41L503.74 527.12L505.3 526.9L506.85 526.74L508.4 526.65L509.95 526.61L511.49 526.64L513.03 526.73L514.56 526.87L516.07 527.08L517.57 527.34L519.06 527.66L520.54 528.04L521.99 528.48L523.43 528.97L524.85 529.51L526.24 530.11L527.61 530.77L528.95 531.47L530.27 532.23L531.56 533.04L532.81 533.91L534.03 534.82L535.22 535.78L536.38 536.79L537.49 537.85L538.57 538.96L539.6 540.11L540.59 541.31L541.54 542.56L542.44 543.85L543.29 545.18L544.1 546.56L544.85 547.99L545.55 549.45L546.19 550.96L546.76 552.44L547.26 553.93L547.69 555.43L548.07 556.94L548.37 558.45L548.62 559.96L548.81 561.47L548.93 562.98L549 564.49L549 566L548.95 567.49L548.84 568.99L548.67 570.47L548.45 571.94L548.16 573.41L547.83 574.85L547.44 576.29L546.99 577.7L546.5 579.1L545.95 580.48L545.35 581.84L544.7 583.17L543.99 584.48L543.24 585.77L542.44 587.02L541.59 588.25L540.7 589.45L539.75 590.61L538.76 591.74L537.73 592.84L536.65 593.9L535.53 594.91L534.36 595.89L533.15 596.83L531.9 597.72L530.61 598.57L529.28 599.37L527.9 600.13L526.49 600.83L525.04 601.49L520.54 603.39L516.03 605.25L511.51 607.05L506.99 608.81L502.47 610.52L497.94 612.19L493.4 613.8L488.87 615.37L484.33 616.88L479.78 618.35L475.23 619.77L470.67 621.15L466.11 622.47L461.55 623.75L456.98 624.97L452.41 626.15L447.83 627.28L443.25 628.37L438.67 629.4L434.08 630.39L429.48 631.33L424.88 632.22L420.28 633.06L415.67 633.85L411.06 634.6L406.44 635.29L401.82 635.94L397.2 636.54L392.57 637.09L387.93 637.6L383.29 638.06L378.65 638.46L374 638.82L369.35 639.14L364.69 639.4L360.03 639.62L355.37 639.78L350.7 639.9L346.02 639.98L341.35 640L333.62 639.94L325.98 639.76L318.41 639.47L310.92 639.06L303.52 638.53L296.19 637.88L288.95 637.11L281.78 636.22L274.69 635.22L267.68 634.1L260.75 632.86L253.91 631.5L247.14 630.03L240.45 628.44L233.84 626.73L227.3 624.9L220.85 622.95L214.48 620.89L208.19 618.7L201.97 616.4L195.84 613.98L189.79 611.45L183.81 608.79L177.91 606.02L172.1 603.13L166.36 600.12L160.7 596.99L155.12 593.75L149.62 590.38L144.2 586.9L138.86 583.3L133.59 579.59L128.41 575.75L123.3 571.8L118.28 567.73L113.33 563.54L108.46 559.23L103.67 554.81L98.96 550.27L94.33 545.61L89.81 540.86L85.41 536.08L81.12 531.24L76.95 526.36L72.89 521.44L68.95 516.47L65.11 511.45L61.4 506.39L57.79 501.28L54.31 496.13L50.93 490.93L47.67 485.69L44.53 480.4L41.49 475.06L38.58 469.68L35.77 464.25L33.08 458.78L30.51 453.26L28.05 447.7L25.7 442.09L23.47 436.43L21.35 430.73L19.35 424.98L17.46 419.19L15.69 413.35L14.03 407.47L12.48 401.54L11.05 395.56L9.74 389.54L8.53 383.47L7.45 377.36L6.47 371.2L5.61 364.99L4.87 358.74L4.24 352.44L3.72 346.1L3.32 339.71L3.04 333.27L2.86 326.79L2.81 320.26L2.87 313.45L3.05 306.7L3.35 300.01L3.77 293.37L4.31 286.79L4.97 280.27L5.76 273.8L6.66 267.38L7.68 261.03L8.83 254.73L10.09 248.48L11.48 242.29L12.98 236.16L14.6 230.09L16.35 224.07L18.22 218.1L20.2 212.2L22.31 206.34L24.53 200.55L26.88 194.81L29.35 189.13L31.93 183.5L34.64 177.93L37.47 172.41L40.41 166.96L43.48 161.55L46.67 156.21L49.97 150.91L53.4 145.68L56.95 140.5L60.62 135.38L64.41 130.31L68.31 125.3L72.34 120.34L76.49 115.44L80.76 110.6L85.15 105.81L89.65 101.08L94.28 96.4L99.03 91.78L103.86 87.25L108.75 82.83L113.68 78.52L118.67 74.33L123.7 70.26L128.79 66.3L133.93 62.45L139.12 58.72L144.36 55.11L149.65 51.61L154.99 48.22L160.39 44.95L165.83 41.8L171.32 38.76L176.87 35.83L182.46 33.02L188.11 30.33L193.81 27.75L199.55 25.28L205.35 22.93L211.2 20.69L217.1 18.57L223.05 16.56L229.05 14.67L235.1 12.9L241.21 11.23L247.36 9.69L253.56 8.25L259.82 6.93L266.12 5.73L272.48 4.64L278.88 3.67L285.34 2.81L291.85 2.06L298.4 1.43L305.01 0.92L311.67 0.52L318.38 0.23L325.14 0.06L331.95 0L338.42 0.05L344.84 0.2ZM317.68 244.73L316.38 244.81L315.09 244.92L313.8 245.06L312.53 245.23L311.27 245.43L310.02 245.67L308.78 245.93L307.55 246.23L306.33 246.56L305.12 246.92L303.92 247.31L302.74 247.73L301.56 248.18L300.4 248.66L299.24 249.18L298.1 249.72L296.97 250.3L295.85 250.9L294.74 251.54L293.64 252.21L292.55 252.91L291.47 253.64L290.4 254.4L289.34 255.19L288.3 256.01L287.26 256.86L286.24 257.74L285.22 258.66L284.22 259.6L283.23 260.58L282.25 261.58L281.27 262.62L280.31 263.68L279.36 264.78L278.43 265.91L277.5 267.07L276.58 268.26L275.68 269.47L274.79 270.72L273.92 271.98L273.07 273.26L272.25 274.57L271.45 275.89L270.68 277.23L269.92 278.59L269.19 279.97L268.48 281.37L267.79 282.79L267.13 284.23L266.49 285.69L265.87 287.17L265.27 288.67L264.7 290.18L264.14 291.72L263.62 293.28L263.11 294.85L262.62 296.45L262.16 298.07L261.72 299.7L261.31 301.36L260.91 303.03L260.54 304.72L260.19 306.44L259.87 308.17L259.56 309.92L259.28 311.7L259.02 313.49L258.78 315.3L258.57 317.13L258.38 318.98L258.21 320.85L258.06 322.74L257.94 324.65L257.84 326.58L257.76 328.53L257.7 330.5L257.67 332.48L257.66 334.49L257.67 336.12L257.69 337.74L257.73 339.34L257.79 340.92L257.86 342.5L257.95 344.06L258.05 345.6L258.18 347.14L258.31 348.66L258.47 350.16L258.64 351.65L258.82 353.13L259.02 354.6L259.24 356.05L259.48 357.49L259.73 358.91L259.99 360.32L260.28 361.72L260.57 363.1L260.89 364.47L261.22 365.83L261.57 367.17L261.93 368.5L262.31 369.82L262.71 371.12L263.12 372.41L263.55 373.69L263.99 374.95L264.45 376.2L264.93 377.44L265.42 378.66L265.93 379.87L266.46 381.06L267 382.25L267.55 383.42L268.13 384.57L268.72 385.72L269.32 386.85L269.95 387.96L270.58 389.07L271.23 390.15L271.88 391.2L272.54 392.23L273.21 393.23L273.89 394.21L274.59 395.15L275.29 396.07L276 396.96L276.73 397.83L277.46 398.66L278.21 399.47L278.96 400.25L279.73 401.01L280.5 401.73L281.29 402.43L282.08 403.1L282.89 403.75L283.71 404.36L284.53 404.95L285.37 405.52L286.22 406.05L287.07 406.56L287.94 407.04L288.82 407.49L289.71 407.92L290.61 408.31L291.52 408.68L292.44 409.03L293.36 409.34L294.3 409.63L295.25 409.89L296.21 410.12L297.19 410.33L298.17 410.51L299.16 410.66L300.16 410.78L301.17 410.88L302.19 410.94L303.23 410.99L304.27 411L305.8 410.98L307.32 410.92L308.83 410.83L310.33 410.7L311.82 410.53L313.3 410.32L314.77 410.08L316.22 409.8L317.67 409.48L319.1 409.12L320.53 408.72L321.94 408.29L323.34 407.82L324.73 407.32L326.12 406.77L327.49 406.19L328.85 405.57L330.19 404.92L331.53 404.22L332.86 403.49L334.18 402.72L335.48 401.92L336.78 401.08L338.06 400.2L339.33 399.28L340.6 398.33L341.85 397.34L343.09 396.31L344.32 395.25L345.54 394.15L346.75 393.01L347.95 391.83L349.13 390.62L350.31 389.37L351.48 388.08L352.63 386.76L353.78 385.4L354.91 384L356.03 382.57L357.14 381.1L358.24 379.6L359.3 378.08L360.34 376.56L361.35 375.03L362.33 373.48L363.29 371.93L364.22 370.36L365.12 368.79L365.99 367.2L366.84 365.6L367.66 363.99L368.45 362.38L369.21 360.75L369.95 359.11L370.66 357.46L371.34 355.8L371.99 354.13L372.62 352.45L373.22 350.75L373.79 349.05L374.33 347.34L374.85 345.61L375.34 343.87L375.8 342.13L376.24 340.37L376.65 338.6L377.03 336.82L377.38 335.03L377.7 333.23L378 331.42L378.27 329.6L378.51 327.76L378.73 325.92L378.92 324.06L379.08 322.19L379.21 320.31L379.32 318.43L379.4 316.52L379.45 314.61L379.47 312.69L379.46 311.15L379.42 309.63L379.37 308.12L379.29 306.63L379.19 305.15L379.06 303.69L378.92 302.24L378.75 300.81L378.56 299.4L378.34 298L378.11 296.62L377.85 295.25L377.57 293.9L377.26 292.56L376.94 291.24L376.59 289.93L376.22 288.64L375.82 287.37L375.4 286.11L374.97 284.86L374.5 283.63L374.02 282.42L373.51 281.22L372.98 280.04L372.43 278.87L371.86 277.72L371.26 276.59L370.64 275.47L370 274.36L369.33 273.27L368.65 272.2L367.94 271.14L367.21 270.09L366.45 269.06L365.68 268.05L364.88 267.05L364.05 266.07L363.21 265.1L362.34 264.14L361.45 263.21L360.55 262.29L359.64 261.39L358.72 260.52L357.8 259.67L356.87 258.85L355.93 258.05L354.99 257.27L354.04 256.52L353.09 255.79L352.13 255.08L351.16 254.39L350.18 253.73L349.2 253.1L348.22 252.48L347.22 251.89L346.22 251.32L345.22 250.78L344.21 250.26L343.19 249.76L342.16 249.29L341.13 248.83L340.09 248.41L339.05 248L338 247.62L336.94 247.26L335.88 246.93L334.81 246.62L333.73 246.33L332.65 246.06L331.56 245.82L330.47 245.6L329.37 245.4L328.26 245.23L327.14 245.08L326.02 244.96L324.9 244.85L323.76 244.77L322.62 244.71L321.48 244.68L320.33 244.67L319 244.68L317.68 244.73Z" id="e1KXNJOL2"></path></defs><g><g><g><use xlink:href="#e1KXNJOL2" opacity="1" fill="#ffffff" fill-opacity="1"></use><g><use xlink:href="#e1KXNJOL2" opacity="1" fill-opacity="0" stroke="#000000" stroke-width="1" stroke-opacity="0"></use></g></g></g></g></svg>