<svg width="640" height="640" xmlns="http://www.w3.org/2000/svg" xmlns:xlink="http://www.w3.org/1999/xlink" preserveAspectRatio="xMidYMid meet">
 <defs>
  <path id="e1KXNJOL2" d="m344.839996,0.2l6.369995,0.25l6.320007,0.36l6.26001,0.45l6.209991,0.56l6.160004,0.65l6.109985,0.76l6.050018,0.85l6,0.96l5.940002,1.06l5.899994,1.16l5.839996,1.26l5.779999,1.36l5.73999,1.47l5.680023,1.559999l5.629974,1.66l5.570007,1.77l5.52002,1.860001l5.470001,1.969999l5.419983,2.07l5.360016,2.17l5.309998,2.27l5.25,2.369999l5.209991,2.470001l5.149994,2.57l5.089996,2.669998l5.050018,2.780003l4.98999,2.869999l4.929993,2.98l4.890015,3.07l4.829987,3.18l4.77002,3.279999l4.72998,3.380001l4.669983,3.470001l4.610046,3.59l4.569946,3.68l4.51001,3.779999l4.450012,3.879997l4.410034,3.990005l4.329956,4.049995l4.220032,4.099998l4.109985,4.140007l4,4.18l3.900024,4.229996l3.779968,4.270004l3.669983,4.309998l3.559998,4.349998l3.450012,4.400002l3.340027,4.43l3.22998,4.479996l3.119995,4.530006l3.02002,4.559998l2.899963,4.610001l2.790039,4.649994l2.679993,4.690002l2.580017,4.729996l2.459961,4.779999l2.350037,4.820007l2.23999,4.860001l2.140015,4.899994l2.019958,4.940002l1.920044,4.990005l1.799988,5.029999l1.700012,5.069992l1.579956,5.110001l1.480042,5.160004l1.359985,5.190002l1.26001,5.240005l1.149963,5.279999l1.040039,5.319992l0.929993,5.37001l0.820007,5.399994l0.709961,5.449997l0.600037,5.490005l0.48999,5.529999l0.380005,5.569992l0.269958,5.619995l0.170044,5.650024l0.049988,5.699982l-0.030029,4.5l-0.099976,4.459991l-0.169983,4.440002l-0.230042,4.390015l-0.309998,4.369995l-0.359985,4.329987l-0.440002,4.310028l-0.5,4.259979l-0.570007,4.240021l-0.639954,4.199982l-0.700012,4.170013l-0.77002,4.130005l-0.839966,4.109985l-0.900024,4.070007l-0.97998,4.029999l-1.030029,4.01001l-1.109985,3.969971l-1.169983,3.940002l-1.240051,3.900024l-1.309998,3.879974l-1.369995,3.830017l-1.440002,3.809998l-1.5,3.769989l-1.579956,3.740021l-1.640015,3.709991l-1.700012,3.669983l-1.779968,3.640015l-1.840027,3.609985l-1.900024,3.580017l-1.97998,3.540009l-2.039978,3.5l-2.100037,3.47998l-2.179993,3.440002l-2.23999,3.410004l-2.299988,3.369995l-2.380005,3.350006l-2.440002,3.299988l-2.5,3.279999l-2.580017,3.240021l-2.640015,3.209991l-2.679993,3.160004l-2.709961,3.079987l-2.73999,3.01001l-2.76001,2.920013l-2.780029,2.839996l-2.809998,2.759979l-2.839966,2.680023l-2.860046,2.599976l-2.889954,2.52002l-2.910034,2.440002l-2.929993,2.359985l-2.960022,2.279999l-2.98999,2.200012l-3.01001,2.119995l-3.029968,2.029999l-3.059998,1.959991l-3.090027,1.880005l-3.109985,1.800018l-3.130005,1.720001l-3.159973,1.639984l-3.190002,1.559998l-3.210022,1.470001l-3.22998,1.399994l-3.26001,1.320007l-3.290009,1.23999l-3.309998,1.160004l-3.329987,1.080017l-3.360016,1l-3.389984,0.910004l-3.410004,0.839996l-3.430023,0.759979l-3.459991,0.680023l-3.48999,0.599976l-3.51001,0.52002l-3.529999,0.440002l-3.559998,0.359985l-3.589996,0.279999l-3.610016,0.200012l-3.629974,0.119995l-3.660004,0.040009l-2.480011,-0.029999l-2.450012,-0.070007l-2.419983,-0.119995l-2.390015,-0.170013l-2.359985,-0.209991l-2.330017,-0.269989l-2.299988,-0.310028l-2.269989,-0.359985l-2.240021,-0.410004l-2.209991,-0.459991l-2.179993,-0.5l-2.149994,-0.550018l-2.110016,-0.599976l-2.089996,-0.650024l-2.059998,-0.699982l-2.029999,-0.73999l-1.98999,-0.800018l-1.970001,-0.839996l-1.930023,-0.890015l-1.909973,-0.939972l-1.870026,-0.980011l-1.849976,-1.040009l-1.810028,-1.079987l-1.779999,-1.130005l-1.759979,-1.179993l-1.720001,-1.230011l-1.690002,-1.269989l-1.660004,-1.330017l-1.640015,-1.369995l-1.599976,-1.419983l-1.570007,-1.470001l-1.540009,-1.52002l-1.509979,-1.559998l-1.480011,-1.619995l-1.450012,-1.660004l-1.419983,-1.709991l-1.390015,-1.76001l-1.359985,-1.809998l-1.330017,-1.859985l-1.289978,-1.900024l-1.720001,1.980011l-1.730011,1.929993l-1.73999,1.890015l-1.77002,1.829987l-1.779999,1.779999l-1.789978,1.730011l-1.820007,1.690002l-1.830017,1.630005l-1.849976,1.579987l-1.870026,1.529999l-1.879974,1.48999l-1.910004,1.430023l-1.910004,1.380005l-1.940002,1.329987l-1.950012,1.290009l-1.97998,1.22998l-1.980011,1.180023l-2.01001,1.129974l-2.019989,1.080017l-2.040009,1.029999l-2.059998,0.980011l-2.079987,0.929993l-2.089996,0.889984l-2.110016,0.830017l-2.119995,0.779999l-2.149994,0.72998l-2.160004,0.680023l-2.179993,0.629974l-2.200012,0.570007l-2.209991,0.529999l-2.240021,0.480011l-2.23999,0.429993l-2.269989,0.380005l-2.290009,0.329987l-2.299988,0.27002l-2.320007,0.22998l-2.339996,0.180023l-2.350006,0.119995l-2.369995,0.079987l-2.390015,0.02002l-2.679993,-0.029999l-2.649994,-0.080017l-2.640015,-0.139984l-2.609985,-0.200012l-2.589996,-0.25l-2.580017,-0.309998l-2.559998,-0.369995l-2.529999,-0.420013l-2.519989,-0.47998l-2.5,-0.540009l-2.470001,-0.589996l-2.459991,-0.649994l-2.440002,-0.700012l-2.420013,-0.769989l-2.399994,-0.820007l-2.380005,-0.869995l-2.369995,-0.930023l-2.340012,-0.98999l-2.319992,-1.049988l-2.300003,-1.100006l-2.289993,-1.160004l-2.26001,-1.220001l-2.25,-1.269989l-2.220001,-1.330017l-2.209991,-1.389984l-2.190002,-1.440002l-2.169998,-1.5l-2.150009,-1.559998l-2.12999,-1.610016l-2.110001,-1.669983l-2.089996,-1.730011l-2.070007,-1.790009l-2.050003,-1.839996l-2.039993,-1.899994l-2.01001,-1.959991l-2,-2.01001l-1.969986,-2.070007l-1.960007,-2.130005l-1.940002,-2.189972l-1.919998,-2.240021l-1.880005,-2.279999l-1.839996,-2.320007l-1.789993,-2.349976l-1.740005,-2.390015l-1.690002,-2.419983l-1.649994,-2.460022l-1.600006,-2.5l-1.550003,-2.529999l-1.5,-2.570007l-1.449997,-2.609985l-1.410004,-2.640015l-1.360001,-2.679993l-1.309998,-2.709991l-1.259995,-2.75l-1.220001,-2.779999l-1.160004,-2.820007l-1.119995,-2.859985l-1.080002,-2.890015l-1.020004,-2.929993l-0.979996,-2.959991l-0.919998,-3l-0.880005,-3.040009l-0.839996,-3.070007l-0.779999,-3.109985l-0.740005,-3.140015l-0.690002,-3.179993l-0.639999,-3.209991l-0.599991,-3.25l-0.540009,-3.279999l-0.5,-3.320007l-0.459991,-3.360016l-0.400009,-3.389984l-0.360001,-3.429993l-0.309998,-3.460022l-0.259995,-3.5l-0.210007,-3.529999l-0.169998,-3.569977l-0.119995,-3.600006l-0.070007,-3.640015l-0.019989,-3.669983l0.029999,-3.76001l0.080002,-3.730011l0.12999,-3.699982l0.190002,-3.660004l0.240005,-3.619995l0.289993,-3.589996l0.350006,-3.560028l0.399994,-3.519989l0.449997,-3.48999l0.51001,-3.450012l0.559998,-3.419983l0.619995,-3.390015l0.669998,-3.350006l0.720001,-3.309998l0.779999,-3.279999l0.830002,-3.25l0.880005,-3.209991l0.940002,-3.179993l0.98999,-3.150024l1.050003,-3.099976l1.090012,-3.080017l1.159988,-3.039978l1.199997,-3.000015l1.270004,-2.979996l1.309998,-2.930008l1.37001,-2.899994l1.419998,-2.869995l1.479996,-2.830002l1.529999,-2.800003l1.580002,-2.770004l1.639999,-2.720001l1.699997,-2.699997l1.740005,-2.660004l1.809998,-2.619995l1.850006,-2.589996l1.909988,-2.559998l1.970001,-2.520004l2.01001,-2.479996l2.080002,-2.450012l2.119995,-2.419998l2.160004,-2.369995l2.179993,-2.309998l2.199997,-2.25l2.220001,-2.190002l2.240005,-2.130005l2.270004,-2.069992l2.279999,-2.01001l2.309998,-1.949997l2.330002,-1.889999l2.360001,-1.830002l2.369995,-1.769989l2.399994,-1.720001l2.420013,-1.650009l2.439987,-1.589996l2.460007,-1.529999l2.490005,-1.470001l2.5,-1.410004l2.529999,-1.360001l2.549988,-1.289993l2.570007,-1.229996l2.600006,-1.170013l2.609985,-1.110001l2.640015,-1.059998l2.660004,-0.98999l2.679993,-0.930008l2.700012,-0.869995l2.719971,-0.809998l2.75,-0.75l2.77002,-0.700012l2.790009,-0.62999l2.809998,-0.570007l2.829987,-0.509995l2.850006,-0.449997l2.880005,-0.389999l2.899994,-0.330002l2.910004,-0.279999l2.940002,-0.210007l2.970001,-0.149994l2.97998,-0.089996l3.01001,-0.030014l1.890015,0.020004l1.889984,0.050003l1.880005,0.080002l1.880005,0.119995l1.859985,0.139999l1.860016,0.180008l1.849976,0.220001l1.850006,0.23999l1.830017,0.279999l1.829987,0.309998l1.820007,0.340012l1.820007,0.37999l1.809998,0.410004l1.799988,0.440002l1.790009,0.479996l1.779999,0.5l1.779999,0.540009l1.769989,0.580002l1.76001,0.599991l1.75,0.639999l1.75,0.669998l1.73999,0.700012l1.730011,0.729996l1.720001,0.770004l1.720001,0.799988l1.709991,0.830002l1.700012,0.87001l1.690002,0.899994l1.690002,0.929993l1.669983,0.960007l1.670013,0.990005l1.669983,1.029999l1.649994,1.059998l1.650024,1.089996l1.639984,1.130005l1.630005,1.149994l1.619995,1.190002l1.619995,1.220001l1.610016,1.259995l1.600006,1.279999l5.349976,-19.449997l83.560028,0l-24.290009,198.580002l-0.100006,1.019989l-0.109985,1l-0.100006,1.01001l-0.100006,0.98999l-0.100006,0.990021l-0.089996,0.97998l-0.089996,0.970001l-0.089996,0.970001l-0.089996,0.960022l-0.080017,0.949982l-0.079987,0.950012l-0.080017,0.940002l-0.079987,0.940002l-0.070007,0.919983l-0.070007,0.920013l-0.069977,0.919983l-0.070007,0.899994l-0.059998,0.900024l-0.059998,0.899994l-0.059998,0.880005l-0.050018,0.880005l-0.049988,0.879974l-0.050018,0.870026l-0.049988,0.859985l-0.040009,0.850006l-0.049988,0.850006l-0.029999,0.839996l-0.040009,0.829987l-0.029999,0.830017l-0.029999,0.819977l-0.029999,0.820007l-0.019989,0.809998l-0.029999,0.800018l-0.02002,0.789978l-0.009979,0.790009l-0.01001,0.790009l-0.01001,0.769989l-0.009979,0.77002l-0.01001,0.769989l0,0.75l0.01001,0.919983l0.039978,0.900024l0.050018,0.869995l0.069977,0.850006l0.100006,0.819977l0.119995,0.800018l0.140015,0.779999l0.160004,0.75l0.179993,0.73999l0.209991,0.700012l0.230011,0.690002l0.23999,0.660004l0.27002,0.629974l0.289978,0.620026l0.320007,0.589996l0.330017,0.569977l0.359985,0.540009l0.369995,0.519989l0.399994,0.5l0.420013,0.470001l0.440002,0.460022l0.470001,0.419983l0.47998,0.410004l0.51001,0.380005l0.519989,0.359985l0.550018,0.330017l0.570007,0.309998l0.599976,0.290009l0.610016,0.269989l0.639984,0.23999l0.650024,0.220001l0.679993,0.200012l0.699982,0.170013l0.720001,0.149994l0.75,0.119995l0.76001,0.109985l0.790009,0.080017l0.809998,0.059998l0.829987,0.029999l0.850006,0.01001l1.589996,-0.02002l1.589996,-0.079987l1.590027,-0.119995l1.589996,-0.180023l1.579987,-0.220001l1.580017,-0.279999l1.579987,-0.319977l1.570007,-0.380005l1.569977,-0.420013l1.570007,-0.47998l1.570007,-0.52002l1.559998,-0.579987l1.559998,-0.630005l1.550018,-0.670013l1.559998,-0.72998l1.549988,-0.779999l1.549988,-0.820007l1.540009,-0.880005l1.540009,-0.929993l1.540009,-0.980011l1.539978,-1.029999l1.529999,-1.079987l1.529999,-1.130005l1.529999,-1.179993l1.52002,-1.230011l1.519989,-1.279999l1.52002,-1.329987l1.519989,-1.380005l1.51001,-1.440002l1.509979,-1.480011l1.5,-1.529999l1.51001,-1.589996l1.5,-1.640015l1.5,-1.679993l1.48999,-1.73999l1.48999,-1.790009l1.48999,-1.839996l1.490051,-1.889984l1.47998,-1.940002l1.47998,-1.990021l1.460022,-2.019989l1.419983,-2.049988l1.390015,-2.070007l1.349976,-2.100006l1.309998,-2.119995l1.280029,-2.149994l1.23999,-2.180023l1.200012,-2.199982l1.169983,-2.220001l1.130005,-2.26001l1.090027,-2.269989l1.059998,-2.309998l1.009949,-2.330017l0.990051,-2.350006l0.940002,-2.389984l0.909973,-2.399994l0.869995,-2.429993l0.830017,-2.460022l0.799988,-2.47998l0.76001,-2.51001l0.719971,-2.540009l0.690002,-2.559998l0.650024,-2.579987l0.609985,-2.610016l0.580017,-2.639984l0.539978,-2.660004l0.5,-2.690002l0.460022,-2.709991l0.429993,-2.730011l0.390015,-2.769989l0.349976,-2.779999l0.320007,-2.820007l0.280029,-2.830017l0.23999,-2.869995l0.200012,-2.889984l0.169983,-2.910004l0.130005,-2.940002l0.089966,-2.959991l0.059998,-2.990021l0.02002,-3.009979l-0.039978,-4.410004l-0.130005,-4.369995l-0.200012,-4.330017l-0.280029,-4.290009l-0.359985,-4.259979l-0.450012,-4.220001l-0.519958,-4.180008l-0.610046,-4.139999l-0.690002,-4.110001l-0.759949,-4.069992l-0.850037,-4.030014l-0.929993,-3.98999l-1.01001,-3.949997l-1.089966,-3.920013l-1.170044,-3.87999l-1.25,-3.839996l-1.339966,-3.800003l-1.410034,-3.770004l-1.48999,-3.729996l-1.579956,-3.690002l-1.660034,-3.649994l-1.72998,-3.62001l-1.820007,-3.580002l-1.900024,-3.539993l-1.97998,-3.5l-2.059998,-3.460007l-2.140015,-3.429993l-2.219971,-3.389999l-2.299988,-3.350006l-2.390015,-3.319992l-2.460022,-3.270004l-2.539978,-3.240005l-2.630005,-3.199997l-2.710022,-3.160004l-2.779999,-3.12999l-2.869995,-3.090012l-2.949982,-3.049988l-3.029999,-3.01001l-3.110016,-2.970001l-3.190002,-2.939987l-3.25,-2.880005l-3.290009,-2.810005l-3.319977,-2.739998l-3.360016,-2.659996l-3.399994,-2.590004l-3.429993,-2.510002l-3.470001,-2.449997l-3.5,-2.370003l-3.550018,-2.299995l-3.579987,-2.220001l-3.610016,-2.150002l-3.659973,-2.080002l-3.690002,-2.009995l-3.720001,-1.93l-3.76001,-1.860001l-3.799988,-1.790001l-3.839996,-1.709999l-3.870026,-1.650002l-3.910004,-1.559998l-3.939972,-1.5l-3.990021,-1.420006l-4.009979,-1.349998l-4.060028,-1.279999l-4.089996,-1.199997l-4.129974,-1.130005l-4.160004,-1.059998l-4.200012,-0.989998l-4.23999,-0.910004l-4.27002,-0.839996l-4.309998,-0.760002l-4.339996,-0.699997l-4.389984,-0.620003l-4.410004,-0.540001l-4.460022,-0.480003l-4.48999,-0.399994l-4.529999,-0.330002l-4.559998,-0.25l-4.600006,-0.18l-4.639984,-0.110001l-4.670013,-0.040001l-5.070007,0.040001l-5.029999,0.139999l-5,0.220001l-4.949982,0.309998l-4.910004,0.400002l-4.869995,0.489998l-4.839996,0.580002l-4.790009,0.669998l-4.76001,0.760002l-4.709991,0.840004l-4.670013,0.939995l-4.639984,1.020004l-4.589996,1.110001l-4.559998,1.199997l-4.51001,1.290001l-4.470001,1.379997l-4.440002,1.470001l-4.389999,1.550003l-4.360001,1.649994l-4.309998,1.730003l-4.270004,1.82l-4.23999,1.910004l-4.190002,2l-4.150009,2.089996l-4.119995,2.169998l-4.069992,2.270004l-4.030014,2.349998l-3.98999,2.440002l-3.960007,2.529999l-3.909988,2.619995l-3.87001,2.700005l-3.830002,2.799995l-3.789993,2.880005l-3.75,2.970001l-3.710007,3.059998l-3.669998,3.149994l-3.619995,3.240005l-3.589996,3.320007l-3.550003,3.409988l-3.5,3.5l-3.460007,3.580002l-3.360001,3.619995l-3.279999,3.660004l-3.190002,3.710007l-3.099991,3.75l-3.020004,3.800003l-2.929993,3.829987l-2.840012,3.890015l-2.75,3.919998l-2.669998,3.970001l-2.580002,4.009995l-2.489998,4.059998l-2.409996,4.100006l-2.32,4.139999l-2.230003,4.190002l-2.139999,4.229996l-2.059998,4.279999l-1.970001,4.319992l-1.879997,4.360001l-1.790001,4.400009l-1.709999,4.459991l-1.620003,4.490005l-1.529999,4.539993l-1.440002,4.580002l-1.360001,4.62001l-1.269997,4.669998l-1.18,4.720001l-1.099998,4.76001l-1,4.799988l-0.920006,4.839996l-0.839996,4.890015l-0.739998,4.929993l-0.660004,4.97998l-0.57,5.02002l-0.479996,5.070007l-0.389999,5.109985l-0.310005,5.149994l-0.220001,5.200012l-0.129997,5.23999l-0.040001,5.279999l0.040001,4.869995l0.120003,4.839996l0.199997,4.810028l0.290001,4.779999l0.370003,4.73999l0.449997,4.720001l0.529999,4.679993l0.610001,4.649994l0.699997,4.619995l0.770004,4.590027l0.860001,4.549988l0.939995,4.529999l1.020004,4.48999l1.099998,4.460022l1.190002,4.429993l1.260002,4.399994l1.349998,4.369995l1.43,4.339996l1.509995,4.300018l1.590004,4.269989l1.68,4.23999l1.75,4.210022l1.839996,4.179993l1.920006,4.149994l2,4.110016l2.079994,4.089996l2.160004,4.049988l2.239998,4.02002l2.330002,3.98999l2.400002,3.949982l2.48999,3.930023l2.570007,3.889984l2.649994,3.860016l2.740005,3.829987l2.809998,3.800018l2.889999,3.769989l2.980011,3.730011l3.059998,3.699982l3.139999,3.670013l3.220001,3.639984l3.299988,3.589996l3.37001,3.5l3.440002,3.400024l3.5,3.309998l3.579987,3.22998l3.640015,3.130005l3.699997,3.039978l3.779999,2.950012l3.839996,2.859985l3.899994,2.77002l3.980011,2.679993l4.039993,2.580017l4.110001,2.5l4.180008,2.400024l4.23999,2.319946l4.309998,2.220032l4.380005,2.130005l4.440002,2.039978l4.509995,1.950012l4.580002,1.859985l4.650009,1.77002l4.709991,1.679993l4.779999,1.580017l4.850006,1.5l4.909988,1.409973l4.980011,1.309998l5.049988,1.220032l5.110016,1.139954l5.190002,1.040039l5.23999,0.950012l5.320007,0.859985l5.380005,0.77002l5.449982,0.679993l5.52002,0.589966l5.589996,0.5l5.649994,0.410034l5.720001,0.309998l5.779999,0.22998l5.859985,0.140015l5.920013,0.039978l3.73999,-0.02002l3.75,-0.059998l3.75,-0.109985l3.76001,-0.140015l3.76001,-0.190002l3.769989,-0.23999l3.769989,-0.269958l3.77002,-0.309998l3.789978,-0.360046l3.779999,-0.399963l3.790009,-0.440002l3.800018,-0.48999l3.799988,-0.530029l3.799988,-0.559998l3.809998,-0.609985l3.810028,-0.660034l3.819977,-0.690002l3.820007,-0.73999l3.830017,-0.779968l3.829987,-0.820007l3.839996,-0.859985l3.839996,-0.910034l3.839996,-0.940002l3.850006,-0.98999l3.850006,-1.039978l3.859985,-1.070007l3.860016,-1.109985l3.869995,-1.160034l3.869995,-1.200012l3.869995,-1.23999l3.880005,-1.289978l3.890015,-1.330017l3.880005,-1.359985l3.889984,-1.410034l3.899994,-1.459961l3.899994,-1.48999l3.900024,-1.540039l3.910004,-1.579956l3.909973,-1.620056l3.910004,-1.659973l1.529999,-0.609985l1.529999,-0.549988l1.540009,-0.480042l1.550018,-0.409973l1.549988,-0.350037l1.549988,-0.289978l1.559998,-0.219971l1.550018,-0.160034l1.549988,-0.089966l1.550018,-0.040039l1.539978,0.030029l1.540039,0.089966l1.529968,0.140015l1.51001,0.210022l1.5,0.26001l1.48999,0.319946l1.47998,0.380005l1.450012,0.440002l1.440002,0.48999l1.419983,0.540039l1.390015,0.599976l1.369995,0.660034l1.340027,0.699951l1.320007,0.76001l1.289978,0.809998l1.25,0.869995l1.220032,0.910034l1.189941,0.960022l1.160034,1.009949l1.109985,1.059998l1.080017,1.110046l1.029968,1.149963l0.990051,1.200012l0.949951,1.25l0.900024,1.289978l0.849976,1.330017l0.809998,1.380005l0.75,1.429993l0.700012,1.460022l0.640015,1.51001l0.570007,1.47998l0.5,1.48999l0.429993,1.5l0.380005,1.51001l0.299988,1.51001l0.25,1.51001l0.190002,1.509949l0.119995,1.51001l0.070007,1.51001l0,1.51001l-0.049988,1.48999l-0.109985,1.5l-0.170044,1.47998l-0.219971,1.470032l-0.290039,1.469971l-0.329956,1.440002l-0.390015,1.440002l-0.450012,1.410034l-0.48999,1.399963l-0.549988,1.380005l-0.600037,1.360046l-0.649963,1.329956l-0.710022,1.309998l-0.75,1.290039l-0.799988,1.25l-0.849976,1.22998l-0.890015,1.200012l-0.950012,1.159973l-0.98999,1.130005l-1.030029,1.100037l-1.079956,1.059998l-1.119995,1.009949l-1.170044,0.980042l-1.209961,0.940002l-1.25,0.889954l-1.290039,0.850037l-1.329956,0.799988l-1.380005,0.76001l-1.410034,0.700012l-1.450012,0.659973l-4.5,1.900024l-4.509949,1.859985l-4.52002,1.799988l-4.52002,1.76001l-4.519989,1.710022l-4.529999,1.669983l-4.540009,1.609985l-4.529999,1.570007l-4.540009,1.51001l-4.549988,1.469971l-4.549988,1.420044l-4.559998,1.380005l-4.560028,1.319946l-4.559998,1.280029l-4.569977,1.219971l-4.570007,1.180054l-4.580017,1.130005l-4.579987,1.089966l-4.579987,1.030029l-4.590027,0.98999l-4.599976,0.940002l-4.600006,0.889954l-4.600006,0.840027l-4.609985,0.789978l-4.610016,0.75l-4.619995,0.690002l-4.619995,0.650024l-4.619995,0.599976l-4.630005,0.550049l-4.640015,0.509949l-4.639984,0.460022l-4.640015,0.400024l-4.649994,0.359985l-4.649994,0.320007l-4.660004,0.26001l-4.660004,0.219971l-4.660004,0.160034l-4.669983,0.119995l-4.680023,0.079956l-4.669983,0.02002l-7.730011,-0.059998l-7.639984,-0.179993l-7.570007,-0.290039l-7.48999,-0.409973l-7.400024,-0.529968l-7.329987,-0.650024l-7.23999,-0.77002l-7.170013,-0.890015l-7.089996,-1l-7.01001,-1.119995l-6.929993,-1.23999l-6.839996,-1.359985l-6.770004,-1.469971l-6.690002,-1.590027l-6.610001,-1.710022l-6.539993,-1.829956l-6.449997,-1.950012l-6.37001,-2.059998l-6.289993,-2.190002l-6.220001,-2.299988l-6.130005,-2.420044l-6.050003,-2.529968l-5.979996,-2.660034l-5.899994,-2.769958l-5.809998,-2.890015l-5.740005,-3.01001l-5.660004,-3.130005l-5.580002,-3.23999l-5.5,-3.369995l-5.419998,-3.47998l-5.339996,-3.600037l-5.270004,-3.709961l-5.179993,-3.840027l-5.110001,-3.950012l-5.020004,-4.070007l-4.949997,-4.190002l-4.870003,-4.309998l-4.790001,-4.419983l-4.709999,-4.539978l-4.629997,-4.660034l-4.520004,-4.75l-4.399994,-4.779968l-4.290001,-4.840027l-4.170006,-4.880005l-4.059998,-4.919983l-3.940002,-4.970032l-3.839996,-5.019958l-3.709999,-5.059998l-3.610001,-5.110016l-3.48,-5.149994l-3.380001,-5.200012l-3.260002,-5.23999l-3.139999,-5.290009l-3.039997,-5.339996l-2.91,-5.380005l-2.810001,-5.429993l-2.689999,-5.470001l-2.570002,-5.519989l-2.460001,-5.559998l-2.349998,-5.610016l-2.230001,-5.660004l-2.119999,-5.699982l-2,-5.75l-1.890001,-5.790009l-1.77,-5.839996l-1.66,-5.880005l-1.55,-5.929993l-1.429999,-5.980011l-1.31,-6.019989l-1.21,-6.070007l-1.08,-6.110016l-0.98,-6.159973l-0.86,-6.210022l-0.74,-6.25l-0.63,-6.299988l-0.52,-6.339996l-0.4,-6.390015l-0.28,-6.440002l-0.18,-6.47998l-0.05,-6.529999l0.06,-6.809998l0.18,-6.75l0.3,-6.690002l0.42,-6.640015l0.54,-6.579987l0.66,-6.52002l0.79,-6.470001l0.9,-6.419983l1.02,-6.350006l1.15,-6.300003l1.26,-6.25l1.389999,-6.190002l1.5,-6.12999l1.620001,-6.070007l1.75,-6.019989l1.869999,-5.970001l1.980001,-5.900009l2.109999,-5.860001l2.220001,-5.789993l2.349998,-5.740005l2.470001,-5.679993l2.58,-5.630005l2.709999,-5.570007l2.830002,-5.519989l2.939999,-5.449997l3.07,-5.410004l3.189999,-5.339996l3.300003,-5.300003l3.43,-5.230011l3.549999,-5.179993l3.669998,-5.119995l3.790005,-5.070007l3.899994,-5.009995l4.029999,-4.960007l4.150002,-4.899994l4.270004,-4.840004l4.389999,-4.790001l4.5,-4.729996l4.629997,-4.68l4.75,-4.620003l4.830002,-4.529999l4.889999,-4.419998l4.93,-4.310005l4.989998,-4.189995l5.029999,-4.07l5.089996,-3.959999l5.139999,-3.850002l5.190002,-3.73l5.240005,-3.610001l5.289993,-3.5l5.340012,-3.389999l5.399994,-3.27l5.440002,-3.150002l5.490005,-3.040001l5.549988,-2.929996l5.590012,-2.810001l5.649994,-2.690001l5.699997,-2.58l5.740005,-2.469999l5.800003,-2.35l5.849991,-2.24l5.900009,-2.120001l5.949997,-2.01l6,-1.889999l6.050003,-1.77l6.110001,-1.67l6.149994,-1.54l6.199997,-1.44l6.26001,-1.32l6.299988,-1.2l6.360016,-1.09l6.399994,-0.97l6.459991,-0.86l6.51001,-0.75l6.549988,-0.63l6.610016,-0.51l6.660004,-0.4l6.709991,-0.29l6.76001,-0.17l6.809998,-0.06l6.470001,0.05l6.419983,0.15zm-27.160004,244.529996l-1.299988,0.080002l-1.290009,0.110001l-1.290009,0.139999l-1.269989,0.169998l-1.26001,0.199997l-1.25,0.240005l-1.23999,0.259995l-1.230011,0.300003l-1.220001,0.330002l-1.209991,0.360001l-1.199982,0.389999l-1.180023,0.419998l-1.179993,0.449997l-1.160004,0.480011l-1.160004,0.519989l-1.139984,0.540009l-1.130005,0.580002l-1.119995,0.599991l-1.110016,0.639999l-1.099976,0.670013l-1.090027,0.699997l-1.079987,0.729996l-1.070007,0.759995l-1.059998,0.790009l-1.040009,0.820007l-1.039978,0.849976l-1.02002,0.880005l-1.019989,0.920013l-1,0.940002l-0.98999,0.97998l-0.980011,1l-0.980011,1.040009l-0.959991,1.059998l-0.950012,1.100006l-0.929993,1.130005l-0.929993,1.160004l-0.920013,1.190002l-0.899994,1.209991l-0.889984,1.25l-0.869995,1.26001l-0.850006,1.279999l-0.820007,1.309998l-0.799988,1.320007l-0.77002,1.339996l-0.759979,1.359985l-0.730011,1.380005l-0.709991,1.399994l-0.690002,1.420013l-0.660004,1.440002l-0.640015,1.459991l-0.619995,1.480011l-0.600006,1.5l-0.569977,1.509979l-0.559998,1.540009l-0.52002,1.559998l-0.51001,1.570007l-0.48999,1.600006l-0.459991,1.619995l-0.440002,1.630005l-0.410004,1.659973l-0.399994,1.670013l-0.369995,1.690002l-0.350006,1.720001l-0.320007,1.730011l-0.309998,1.75l-0.279999,1.779999l-0.26001,1.789978l-0.23999,1.809998l-0.209991,1.830017l-0.190002,1.850006l-0.170013,1.869995l-0.149994,1.889984l-0.119995,1.910004l-0.100006,1.929993l-0.079987,1.950012l-0.059998,1.970001l-0.029999,1.980011l-0.01001,2.009979l0.01001,1.630005l0.019989,1.619995l0.040009,1.600006l0.059998,1.580017l0.069977,1.579987l0.090027,1.559998l0.099976,1.540009l0.130005,1.540009l0.130005,1.519989l0.160004,1.5l0.170013,1.48999l0.179993,1.480011l0.199982,1.470001l0.220001,1.449982l0.240021,1.440002l0.25,1.420013l0.259979,1.410004l0.290009,1.399994l0.290009,1.380005l0.320007,1.369995l0.329987,1.359985l0.350006,1.340027l0.359985,1.329987l0.380005,1.320007l0.399994,1.299988l0.410004,1.290009l0.429993,1.279999l0.440002,1.26001l0.460022,1.25l0.47998,1.23999l0.490021,1.220001l0.509979,1.209991l0.529999,1.190002l0.540009,1.190002l0.549988,1.170013l0.580017,1.149994l0.589996,1.149994l0.600006,1.130005l0.630005,1.109985l0.629974,1.110016l0.650024,1.079987l0.649994,1.050018l0.660004,1.029999l0.669983,1l0.680023,0.97998l0.699982,0.940002l0.700012,0.920013l0.709991,0.889984l0.730011,0.869995l0.72998,0.830017l0.75,0.809998l0.75,0.779999l0.77002,0.76001l0.769989,0.720001l0.790009,0.699982l0.789978,0.670013l0.810028,0.649994l0.819977,0.609985l0.820007,0.590027l0.839996,0.569977l0.850006,0.529999l0.850006,0.51001l0.869995,0.480011l0.880005,0.449982l0.889984,0.430023l0.899994,0.389984l0.910004,0.369995l0.920013,0.350006l0.919983,0.309998l0.940002,0.290009l0.950012,0.26001l0.959991,0.22998l0.980011,0.209991l0.980011,0.180023l0.98999,0.149994l1,0.119995l1.01001,0.100006l1.019989,0.059998l1.040009,0.049988l1.039978,0.01001l1.529999,-0.019989l1.52002,-0.059998l1.509979,-0.090027l1.5,-0.129974l1.490021,-0.170013l1.47998,-0.209991l1.470001,-0.240021l1.450012,-0.279999l1.450012,-0.319977l1.429993,-0.360016l1.429993,-0.399994l1.410004,-0.429993l1.399994,-0.470001l1.390015,-0.5l1.389984,-0.550018l1.369995,-0.579987l1.360016,-0.619995l1.339996,-0.649994l1.339996,-0.700012l1.329987,-0.730011l1.320007,-0.769989l1.300018,-0.799988l1.299988,-0.840027l1.279999,-0.879974l1.269989,-0.920013l1.27002,-0.950012l1.25,-0.98999l1.23999,-1.029999l1.230011,-1.059998l1.220001,-1.100006l1.209991,-1.139984l1.200012,-1.180023l1.179993,-1.209991l1.179993,-1.25l1.170013,-1.290009l1.149994,-1.319977l1.149994,-1.360016l1.130005,-1.399994l1.119995,-1.429993l1.110016,-1.470001l1.099976,-1.5l1.059998,-1.52002l1.040009,-1.519989l1.01001,-1.529999l0.97998,-1.549988l0.960022,-1.550018l0.929993,-1.570007l0.899994,-1.569977l0.869995,-1.589996l0.850006,-1.600006l0.820007,-1.610016l0.790009,-1.609985l0.759979,-1.630005l0.740021,-1.640015l0.709991,-1.649994l0.679993,-1.660004l0.649994,-1.669983l0.630005,-1.679993l0.600006,-1.700012l0.570007,-1.700012l0.539978,-1.709991l0.52002,-1.730011l0.48999,-1.73999l0.459991,-1.73999l0.440002,-1.76001l0.410004,-1.769989l0.380005,-1.779999l0.350006,-1.790009l0.320007,-1.799988l0.299988,-1.809998l0.269989,-1.820007l0.240021,-1.839996l0.220001,-1.839996l0.190002,-1.860016l0.159973,-1.869995l0.130005,-1.880005l0.110016,-1.880005l0.079987,-1.910004l0.050018,-1.910004l0.019989,-1.919983l-0.01001,-1.540009l-0.039978,-1.519989l-0.050018,-1.51001l-0.079987,-1.48999l-0.100006,-1.480011l-0.130005,-1.459991l-0.139984,-1.450012l-0.170013,-1.429993l-0.190002,-1.410004l-0.220001,-1.399994l-0.230011,-1.380005l-0.259979,-1.369995l-0.279999,-1.350006l-0.309998,-1.339996l-0.320007,-1.320007l-0.350006,-1.309998l-0.369995,-1.289978l-0.399994,-1.27002l-0.420013,-1.26001l-0.429993,-1.25l-0.470001,-1.22998l-0.480011,-1.209991l-0.509979,-1.200012l-0.529999,-1.179993l-0.550018,-1.170013l-0.570007,-1.149994l-0.599976,-1.130005l-0.619995,-1.119995l-0.640015,-1.110016l-0.670013,-1.089996l-0.679993,-1.069977l-0.709991,-1.059998l-0.730011,-1.050018l-0.759979,-1.029999l-0.77002,-1.01001l-0.799988,-1l-0.830017,-0.97998l-0.839996,-0.970001l-0.869995,-0.959991l-0.889984,-0.930023l-0.900024,-0.919983l-0.909973,-0.899994l-0.920013,-0.870026l-0.920013,-0.849976l-0.929993,-0.820007l-0.940002,-0.800018l-0.940002,-0.779999l-0.949982,-0.75l-0.950012,-0.729996l-0.959991,-0.709991l-0.970001,-0.690002l-0.980011,-0.660004l-0.97998,-0.62999l-0.980011,-0.62001l-1,-0.589996l-1,-0.569992l-1,-0.540009l-1.01001,-0.520004l-1.019989,-0.5l-1.029999,-0.470001l-1.029999,-0.459991l-1.040009,-0.419998l-1.040009,-0.410004l-1.049988,-0.380005l-1.059998,-0.360001l-1.059998,-0.330002l-1.070007,-0.309998l-1.079987,-0.289993l-1.080017,-0.270004l-1.089996,-0.23999l-1.089996,-0.220001l-1.100006,-0.200012l-1.109985,-0.169998l-1.119995,-0.149994l-1.120026,-0.119995l-1.119995,-0.110001l-1.139984,-0.080002l-1.140015,-0.059998l-1.139984,-0.030014l-1.150024,-0.009995l-1.329987,0.009995l-1.320007,0.050003z"/>
 </defs>
 <g>
  <title>background</title>
  <rect fill="none" id="canvas_background" height="402" width="582" y="-1" x="-1"/>
 </g>
 <g>
  <title>Layer 1</title>
  <g id="svg_1">
   <g id="svg_2">
    <g id="svg_3">
     <use id="svg_4" fill="#000000" xlink:href="#e1KXNJOL2"/>
     <g id="svg_5">
      <use fill="#000000" id="svg_6" stroke-opacity="0" stroke="#000000" fill-opacity="0" xlink:href="#e1KXNJOL2"/>
     </g>
    </g>
   </g>
  </g>
 </g>
</svg>