<?xml version="1.0" encoding="iso-8859-1"?>
<!-- Generator: Adobe Illustrator 19.1.1, SVG Export Plug-In . SVG Version: 6.00 Build 0)  -->
<svg version="1.1"  xmlns="http://www.w3.org/2000/svg" xmlns:xlink="http://www.w3.org/1999/xlink" x="0px" y="0px"
	 viewBox="0 0 48 48" style="enable-background:new 0 0 48 48;" xml:space="preserve">
<path style="fill:#6D4C41;" d="M31,37c0,0,0.583,3,4,3c-1.75,1.583-4.292,1.708-5,1S31,37,31,37z"/>
<path style="fill:#6D4C41;" d="M30,38c0,0-0.922,2.678,2,2c8.625-2,13-16,13-16H30V38z"/>
<path style="fill:#6D4C41;" d="M16.828,37c0,0-0.583,3-4,3c1.75,1.583,4.292,1.708,5,1C18.536,40.292,16.828,37,16.828,37z"/>
<path style="fill:#6D4C41;" d="M17.828,38c0,0,0.922,2.678-2,2c-8.625-2-13-16-13-16h15V38z"/>
<rect x="16" y="33" style="fill:#FB8C00;" width="16" height="13"/>
<polygon style="fill:#BBDEFB;" points="16,40 14,46 21,46 "/>
<polygon style="fill:#BBDEFB;" points="32,40 34,46 27,46 "/>
<path style="fill:#FFA726;" d="M35.785,24.717c0.154-0.769,0.514-1.493,1.03-2.069c0.414-0.463,1.078-0.844,1.611-0.539
	C38.938,22.403,39,23.125,39,23.731c0,1.047,0,2.094-0.009,3.141c-0.005,0.574-0.014,1.157-0.179,1.705
	c-0.175,0.579-0.515,1.087-0.859,1.579c-0.285,0.407-0.576,0.81-0.873,1.209c-0.261,0.349-0.635,0.735-1.044,0.612
	c-0.146-0.044-0.266-0.148-0.381-0.25c-0.218-0.192-0.436-0.384-0.654-0.575L35.785,24.717z M12.215,24.717
	c-0.154-0.769-0.514-1.493-1.03-2.069c-0.414-0.463-1.078-0.844-1.611-0.539C9.062,22.403,9,23.125,9,23.731
	c0,1.047,0,2.094,0.009,3.141c0.005,0.574,0.014,1.157,0.179,1.705c0.175,0.579,0.515,1.087,0.859,1.579
	c0.285,0.407,0.576,0.81,0.873,1.209c0.261,0.349,0.635,0.735,1.044,0.612c0.146-0.044,0.266-0.148,0.381-0.25
	c0.218-0.192,0.436-0.384,0.654-0.575L12.215,24.717z"/>
<path style="fill:#FB8C00;" d="M38,26c0,2.083-1,3-1,3v-2c-0.552,0-1-0.448-1-1s0.448-1,1-1S38,25.448,38,26z M10,26
	c0,2.083,1,3,1,3v-2c0.552,0,1-0.448,1-1s-0.448-1-1-1S10,25.448,10,26z"/>
<path style="fill:#FFB74D;" d="M22,43c-3.063,0-10-7.833-10-11V15c0,0,0.292-8,12-8s12,8,12,8v17c0,3.083-7.063,11-10,11H22z"/>
<line style="fill:none;stroke:#FB8C00;stroke-width:2;stroke-miterlimit:10;" x1="20" y1="35" x2="28" y2="35"/>
<path style="fill:#8D6E63;" d="M39.891,16.938C39.417,10.965,36.625,2.125,29,2c-2.125,0-3,1-3,1c-1-0.833-3-1-3-1
	c-9.229,0-13,7.481-13,18l3,1.25c0,0,8-3,8-13.25c0,11.083,14,12,14,12v1.25c0,3.713,1.287,6.75,5,6.75c0,0,3.417,0.083,5-4
	C41.083,24,39.957,17.482,39.891,16.938"/>
<path style="fill:#8D6E63;" d="M8.109,16.938C8.583,10.965,14.375,2.125,22,2c2.125,0-9,17-9,17v2.25C13,24.962,11.713,28,8,28
	c0,0-3.417,0.083-5-4C6.917,24,8.043,17.482,8.109,16.938"/>
<path style="fill:#784719;" d="M31,24.5c0,0.829-0.671,1.5-1.5,1.5c-0.829,0-1.5-0.671-1.5-1.5s0.671-1.5,1.5-1.5
	C30.329,23,31,23.671,31,24.5"/>
<path style="fill:#784719;" d="M20,24.5c0,0.829-0.672,1.5-1.5,1.5c-0.829,0-1.5-0.671-1.5-1.5s0.671-1.5,1.5-1.5
	C19.328,23,20,23.671,20,24.5"/>
<path style="fill:#8D6E63;" d="M21,9c0,0-1.333,12,8,12c-8.083-2.917-6-11-6-11L21,9z"/>
</svg>
